<svg xmlns="http://www.w3.org/2000/svg" xmlns:xlink="http://www.w3.org/1999/xlink" width="41" height="30" viewBox="0 0 41 30"><defs><style>.a{fill:#fff;}.b{fill:#fab446;}.c{fill:#73af00;}.d{fill:#f5f5f5;}.e{fill:#41479b;}.f{filter:url(#a);}</style><filter id="a" x="0" y="0" width="41" height="30" filterUnits="userSpaceOnUse"><feOffset dy="2" input="SourceAlpha"/><feGaussianBlur stdDeviation="1.5" result="b"/><feFlood flood-opacity="0.161"/><feComposite operator="in" in2="b"/><feComposite in="SourceGraphic"/></filter></defs><g transform="translate(4.5 2.5)"><g class="f" transform="matrix(1, 0, 0, 1, -4.5, -2.5)"><rect class="a" width="32" height="21" rx="2" transform="translate(4.5 2.5)"/></g><g transform="translate(0)"><path class="b" d="M29.418,88.276H2.382A2.382,2.382,0,0,0,0,90.658v4.563H31.8V90.658A2.382,2.382,0,0,0,29.418,88.276Z" transform="translate(0 -88.276)"/><path class="c" d="M0,316.471a2.382,2.382,0,0,0,2.382,2.382H29.418a2.382,2.382,0,0,0,2.382-2.382v-4.563H0Z" transform="translate(0 -298.018)"/><rect class="d" width="31.8" height="6.944" transform="translate(0 6.945)"/><g transform="translate(12.953 7.47)"><path class="e" d="M211.5,214.446a2.947,2.947,0,1,1,2.947-2.947A2.95,2.95,0,0,1,211.5,214.446Zm0-5.346a2.4,2.4,0,1,0,2.4,2.4A2.4,2.4,0,0,0,211.5,209.1Z" transform="translate(-208.552 -208.552)"/><circle class="e" cx="0.334" cy="0.334" r="0.334" transform="translate(2.613 2.613)"/><path class="e" d="M215.639,254l-.849.086L212.966,254v-.1l1.824-.086.849.086Z" transform="translate(-212.692 -251.002)"/><path class="e" d="M256,254l.849.086,1.824-.086v-.1l-1.824-.086L256,253.9Z" transform="translate(-253.053 -251.002)"/><path class="e" d="M253.9,215.639l-.086-.849.086-1.824h.1l.086,1.824-.086.849Z" transform="translate(-251.002 -212.692)"/><path class="e" d="M253.9,256l-.086.849.086,1.824h.1l.086-1.824L254,256Z" transform="translate(-251.002 -253.053)"/><path class="e" d="M226.89,226.961l-.661-.54L225,225.071l.071-.071,1.35,1.229.54.661Z" transform="translate(-223.978 -223.978)"/><path class="e" d="M255.43,255.5l.54.661,1.35,1.229.071-.071-1.229-1.35-.661-.54Z" transform="translate(-252.518 -252.518)"/><path class="e" d="M255.43,226.89l.54-.661L257.32,225l.071.071-1.229,1.35-.661.54Z" transform="translate(-252.518 -223.978)"/><path class="e" d="M226.89,255.43l-.661.54L225,257.32l.071.071,1.35-1.229.54-.661Z" transform="translate(-223.978 -252.518)"/><path class="e" d="M218.441,255.347l-.752.4-1.718.619-.038-.093,1.652-.777.817-.246Z" transform="translate(-215.475 -252.353)"/><path class="e" d="M255.729,239.9l.817-.246,1.652-.777-.038-.093-1.718.619-.752.4Z" transform="translate(-252.763 -236.908)"/><path class="e" d="M239.809,218.441l-.4-.752-.619-1.718.093-.038.777,1.652.246.817Z" transform="translate(-236.908 -215.475)"/><path class="e" d="M255.254,255.729l.246.817.777,1.652.093-.038-.619-1.718-.4-.752Z" transform="translate(-252.353 -252.763)"/><path class="e" d="M218.4,239.9l-.817-.246-1.652-.777.038-.093,1.718.619.752.4Z" transform="translate(-215.475 -236.908)"/><path class="e" d="M255.691,255.347l.752.4,1.718.619.038-.093-1.652-.777-.817-.246Z" transform="translate(-252.763 -252.353)"/><path class="e" d="M255.254,218.4l.246-.817.777-1.652.093.038-.619,1.718-.4.752Z" transform="translate(-252.353 -215.475)"/><path class="e" d="M239.809,255.691l-.4.752-.619,1.718.093.038.777-1.652.246-.817Z" transform="translate(-236.908 -252.763)"/></g><circle class="d" cx="0.451" cy="0.451" r="0.451" transform="translate(15.449 9.967)"/><circle class="e" cx="0.27" cy="0.27" r="0.27" transform="translate(15.63 10.147)"/></g></g></svg>